<mxfile host="app.diagrams.net" modified="2024-04-24T16:27:45.724Z" agent="Mozilla/5.0 (Windows NT 10.0; Win64; x64) AppleWebKit/537.36 (KHTML, like Gecko) Chrome/124.0.0.0 Safari/537.36" etag="ra_5o4WXRkYL38nFjFMw" version="24.3.0" type="device">
  <diagram name="Page-1" id="gSlVykFgayqXcjRkCpBC">
    <mxGraphModel dx="1900" dy="609" grid="1" gridSize="10" guides="1" tooltips="1" connect="1" arrows="1" fold="1" page="1" pageScale="1" pageWidth="850" pageHeight="1100" math="0" shadow="0">
      <root>
        <mxCell id="0" />
        <mxCell id="1" parent="0" />
        <mxCell id="XwKzM00-Kmc0-U8XHCuE-1" value="" style="rounded=0;whiteSpace=wrap;html=1;" vertex="1" parent="1">
          <mxGeometry x="150" y="90" width="530" height="470" as="geometry" />
        </mxCell>
        <mxCell id="XwKzM00-Kmc0-U8XHCuE-2" value="Actor" style="shape=umlActor;verticalLabelPosition=bottom;verticalAlign=top;html=1;outlineConnect=0;" vertex="1" parent="1">
          <mxGeometry x="90" y="170" width="30" height="60" as="geometry" />
        </mxCell>
        <mxCell id="XwKzM00-Kmc0-U8XHCuE-3" value="User" style="text;html=1;align=center;verticalAlign=middle;resizable=0;points=[];autosize=1;strokeColor=none;fillColor=none;" vertex="1" parent="1">
          <mxGeometry x="55" y="128" width="50" height="30" as="geometry" />
        </mxCell>
        <mxCell id="XwKzM00-Kmc0-U8XHCuE-4" value="Expense Analytics" style="ellipse;whiteSpace=wrap;html=1;" vertex="1" parent="1">
          <mxGeometry x="210" y="103" width="120" height="47" as="geometry" />
        </mxCell>
        <mxCell id="XwKzM00-Kmc0-U8XHCuE-5" value="Budget Setting" style="ellipse;whiteSpace=wrap;html=1;" vertex="1" parent="1">
          <mxGeometry x="210" y="158" width="120" height="52" as="geometry" />
        </mxCell>
        <mxCell id="XwKzM00-Kmc0-U8XHCuE-6" value="Basic Profile" style="ellipse;whiteSpace=wrap;html=1;" vertex="1" parent="1">
          <mxGeometry x="210" y="220" width="120" height="50" as="geometry" />
        </mxCell>
        <mxCell id="XwKzM00-Kmc0-U8XHCuE-7" value="Currency conversion" style="ellipse;whiteSpace=wrap;html=1;" vertex="1" parent="1">
          <mxGeometry x="210" y="280" width="120" height="50" as="geometry" />
        </mxCell>
        <mxCell id="XwKzM00-Kmc0-U8XHCuE-8" value="Actor" style="shape=umlActor;verticalLabelPosition=bottom;verticalAlign=top;html=1;outlineConnect=0;" vertex="1" parent="1">
          <mxGeometry x="90" y="330" width="30" height="60" as="geometry" />
        </mxCell>
        <mxCell id="XwKzM00-Kmc0-U8XHCuE-9" value="Currency Exchange worker" style="text;html=1;align=center;verticalAlign=middle;resizable=0;points=[];autosize=1;strokeColor=none;fillColor=none;" vertex="1" parent="1">
          <mxGeometry x="-10" y="418" width="170" height="30" as="geometry" />
        </mxCell>
        <mxCell id="XwKzM00-Kmc0-U8XHCuE-10" value="" style="endArrow=none;html=1;rounded=0;" edge="1" parent="1" source="XwKzM00-Kmc0-U8XHCuE-2">
          <mxGeometry width="50" height="50" relative="1" as="geometry">
            <mxPoint x="160" y="180" as="sourcePoint" />
            <mxPoint x="210" y="130" as="targetPoint" />
          </mxGeometry>
        </mxCell>
        <mxCell id="XwKzM00-Kmc0-U8XHCuE-11" value="" style="endArrow=none;html=1;rounded=0;exitX=0.5;exitY=0.5;exitDx=0;exitDy=0;exitPerimeter=0;" edge="1" parent="1" source="XwKzM00-Kmc0-U8XHCuE-2">
          <mxGeometry width="50" height="50" relative="1" as="geometry">
            <mxPoint x="160" y="230" as="sourcePoint" />
            <mxPoint x="210" y="180" as="targetPoint" />
          </mxGeometry>
        </mxCell>
        <mxCell id="XwKzM00-Kmc0-U8XHCuE-13" value="" style="endArrow=none;html=1;rounded=0;" edge="1" parent="1" source="XwKzM00-Kmc0-U8XHCuE-2">
          <mxGeometry width="50" height="50" relative="1" as="geometry">
            <mxPoint x="160" y="290" as="sourcePoint" />
            <mxPoint x="210" y="240" as="targetPoint" />
          </mxGeometry>
        </mxCell>
        <mxCell id="XwKzM00-Kmc0-U8XHCuE-14" value="" style="endArrow=none;html=1;rounded=0;exitX=1;exitY=1;exitDx=0;exitDy=0;exitPerimeter=0;" edge="1" parent="1" source="XwKzM00-Kmc0-U8XHCuE-2">
          <mxGeometry width="50" height="50" relative="1" as="geometry">
            <mxPoint x="160" y="350" as="sourcePoint" />
            <mxPoint x="210" y="300" as="targetPoint" />
          </mxGeometry>
        </mxCell>
        <mxCell id="XwKzM00-Kmc0-U8XHCuE-15" value="" style="endArrow=none;html=1;rounded=0;" edge="1" parent="1" source="XwKzM00-Kmc0-U8XHCuE-8">
          <mxGeometry width="50" height="50" relative="1" as="geometry">
            <mxPoint x="160" y="370" as="sourcePoint" />
            <mxPoint x="210" y="320" as="targetPoint" />
          </mxGeometry>
        </mxCell>
        <mxCell id="XwKzM00-Kmc0-U8XHCuE-16" value="Expense Income" style="ellipse;whiteSpace=wrap;html=1;" vertex="1" parent="1">
          <mxGeometry x="210" y="338" width="120" height="52" as="geometry" />
        </mxCell>
        <mxCell id="XwKzM00-Kmc0-U8XHCuE-17" value="Dashboard navigation" style="ellipse;whiteSpace=wrap;html=1;" vertex="1" parent="1">
          <mxGeometry x="470" y="100" width="120" height="50" as="geometry" />
        </mxCell>
        <mxCell id="XwKzM00-Kmc0-U8XHCuE-18" value="Data encryption" style="ellipse;whiteSpace=wrap;html=1;" vertex="1" parent="1">
          <mxGeometry x="470" y="158" width="120" height="42" as="geometry" />
        </mxCell>
        <mxCell id="XwKzM00-Kmc0-U8XHCuE-19" value="Database Management" style="ellipse;whiteSpace=wrap;html=1;" vertex="1" parent="1">
          <mxGeometry x="480" y="368" width="120" height="80" as="geometry" />
        </mxCell>
        <mxCell id="XwKzM00-Kmc0-U8XHCuE-20" value="Actor" style="shape=umlActor;verticalLabelPosition=bottom;verticalAlign=top;html=1;outlineConnect=0;" vertex="1" parent="1">
          <mxGeometry x="710" y="170" width="30" height="60" as="geometry" />
        </mxCell>
        <mxCell id="XwKzM00-Kmc0-U8XHCuE-21" value="Bank&#39;s app manager" style="text;html=1;align=center;verticalAlign=middle;resizable=0;points=[];autosize=1;strokeColor=none;fillColor=none;" vertex="1" parent="1">
          <mxGeometry x="680" y="128" width="130" height="30" as="geometry" />
        </mxCell>
        <mxCell id="XwKzM00-Kmc0-U8XHCuE-22" value="Actor" style="shape=umlActor;verticalLabelPosition=bottom;verticalAlign=top;html=1;outlineConnect=0;" vertex="1" parent="1">
          <mxGeometry x="720" y="368" width="30" height="60" as="geometry" />
        </mxCell>
        <mxCell id="XwKzM00-Kmc0-U8XHCuE-23" value="DBA" style="text;html=1;align=center;verticalAlign=middle;resizable=0;points=[];autosize=1;strokeColor=none;fillColor=none;" vertex="1" parent="1">
          <mxGeometry x="710" y="330" width="50" height="30" as="geometry" />
        </mxCell>
        <mxCell id="XwKzM00-Kmc0-U8XHCuE-24" value="" style="endArrow=none;html=1;rounded=0;exitX=1;exitY=0.5;exitDx=0;exitDy=0;" edge="1" parent="1" source="XwKzM00-Kmc0-U8XHCuE-18">
          <mxGeometry width="50" height="50" relative="1" as="geometry">
            <mxPoint x="660" y="240" as="sourcePoint" />
            <mxPoint x="710" y="190" as="targetPoint" />
          </mxGeometry>
        </mxCell>
        <mxCell id="XwKzM00-Kmc0-U8XHCuE-25" value="" style="endArrow=none;html=1;rounded=0;exitX=1;exitY=0.5;exitDx=0;exitDy=0;" edge="1" parent="1" source="XwKzM00-Kmc0-U8XHCuE-18">
          <mxGeometry width="50" height="50" relative="1" as="geometry">
            <mxPoint x="670" y="440" as="sourcePoint" />
            <mxPoint x="720" y="390" as="targetPoint" />
          </mxGeometry>
        </mxCell>
        <mxCell id="XwKzM00-Kmc0-U8XHCuE-26" value="" style="endArrow=none;html=1;rounded=0;exitX=0.5;exitY=0.5;exitDx=0;exitDy=0;exitPerimeter=0;" edge="1" parent="1" source="XwKzM00-Kmc0-U8XHCuE-2">
          <mxGeometry width="50" height="50" relative="1" as="geometry">
            <mxPoint x="420" y="230" as="sourcePoint" />
            <mxPoint x="470" y="180" as="targetPoint" />
          </mxGeometry>
        </mxCell>
        <mxCell id="XwKzM00-Kmc0-U8XHCuE-27" value="" style="endArrow=none;html=1;rounded=0;exitX=1;exitY=0.3333333333333333;exitDx=0;exitDy=0;exitPerimeter=0;" edge="1" parent="1" source="XwKzM00-Kmc0-U8XHCuE-2">
          <mxGeometry width="50" height="50" relative="1" as="geometry">
            <mxPoint x="420" y="170" as="sourcePoint" />
            <mxPoint x="470" y="120" as="targetPoint" />
          </mxGeometry>
        </mxCell>
        <mxCell id="XwKzM00-Kmc0-U8XHCuE-28" value="" style="endArrow=none;html=1;rounded=0;exitX=1;exitY=0.5;exitDx=0;exitDy=0;entryX=0;entryY=0.3333333333333333;entryDx=0;entryDy=0;entryPerimeter=0;" edge="1" parent="1" source="XwKzM00-Kmc0-U8XHCuE-17" target="XwKzM00-Kmc0-U8XHCuE-20">
          <mxGeometry width="50" height="50" relative="1" as="geometry">
            <mxPoint x="680" y="204" as="sourcePoint" />
            <mxPoint x="710" y="190" as="targetPoint" />
          </mxGeometry>
        </mxCell>
        <mxCell id="XwKzM00-Kmc0-U8XHCuE-29" value="" style="endArrow=none;html=1;rounded=0;exitX=0.593;exitY=0.038;exitDx=0;exitDy=0;exitPerimeter=0;" edge="1" parent="1" source="XwKzM00-Kmc0-U8XHCuE-19">
          <mxGeometry width="50" height="50" relative="1" as="geometry">
            <mxPoint x="660" y="240" as="sourcePoint" />
            <mxPoint x="710" y="190" as="targetPoint" />
          </mxGeometry>
        </mxCell>
        <mxCell id="XwKzM00-Kmc0-U8XHCuE-30" value="" style="endArrow=none;html=1;rounded=0;" edge="1" parent="1" source="XwKzM00-Kmc0-U8XHCuE-19">
          <mxGeometry width="50" height="50" relative="1" as="geometry">
            <mxPoint x="670" y="433" as="sourcePoint" />
            <mxPoint x="720" y="383" as="targetPoint" />
          </mxGeometry>
        </mxCell>
        <mxCell id="XwKzM00-Kmc0-U8XHCuE-31" value="" style="endArrow=none;html=1;rounded=0;" edge="1" parent="1" source="XwKzM00-Kmc0-U8XHCuE-2">
          <mxGeometry width="50" height="50" relative="1" as="geometry">
            <mxPoint x="160" y="410" as="sourcePoint" />
            <mxPoint x="210" y="360" as="targetPoint" />
          </mxGeometry>
        </mxCell>
      </root>
    </mxGraphModel>
  </diagram>
</mxfile>
